# xmcd CD database file
#
# Track frame offsets:
#	150
#	20053
#	36157
#	52354
#	68062
#	86722
#	101817
#	119035
#	133757
#	155977
#
# Disc length: 2313 seconds
#
# Revision: 0
# Processed by: cddbd v1.5.2PL0 Copyright (c) Steve Scherf et al.
# Submitted via: CDex 1.70beta2
#
DISCID=9d09070a
DTITLE=Alice Smith - For Lovers, Dreamers and Me
DYEAR=2007
DGENRE=Blues
TTITLE0=Dream
TTITLE1=Woodstock
TTITLE2=Gary's Song
TTITLE3=New Religion
TTITLE4=Do I
TTITLE5=Fake is the New Real
TTITLE6=Desert Song
TTITLE7=Know That I...
TTITLE8=Secrets
TTITLE9=Love Endeavor
EXTD=YEAR: 2007
EXTT0=
EXTT1=
EXTT2=
EXTT3=
EXTT4=
EXTT5=
EXTT6=
EXTT7=
EXTT8=
EXTT9=
PLAYORDER=
